<svg version="1.1" id="Layer_1" xmlns="http://www.w3.org/2000/svg" xmlns:xlink="http://www.w3.org/1999/xlink" x="0px" y="0px"
	 width="100%" viewBox="0 0 1024 1024" enable-background="new 0 0 1024 1024" xml:space="preserve">
<path fill="#000000" opacity="1.000000" stroke="none" 
	d="
M547.822754,313.731995 
	C572.980469,297.665039 605.796326,300.665131 627.916260,321.591736 
	C642.792480,335.665466 657.286072,350.195099 671.232300,365.189148 
	C695.882935,391.691925 696.805725,428.039886 674.167542,456.220276 
	C659.763306,474.151001 643.954651,490.849640 628.459351,507.813599 
	C621.289612,515.662964 612.160950,519.721558 601.301392,519.424622 
	C596.640747,519.297119 591.972778,519.467651 587.309082,519.415405 
	C578.981323,519.322205 578.944336,519.294373 578.907898,527.404846 
	C578.876465,534.402161 578.953491,541.399841 578.958862,548.397400 
	C578.960388,550.333008 579.226501,552.364807 577.812378,553.803894 
	C576.076416,553.999756 575.364075,552.957336 574.613464,552.120117 
	C557.812134,533.379517 539.814209,515.790161 522.194580,497.841400 
	C518.741211,494.323456 518.611938,492.043091 521.926270,488.377441 
	C539.128052,469.352478 556.096497,450.116608 573.152893,430.960114 
	C574.115845,429.878632 574.822327,428.379578 576.678284,428.562225 
	C578.531860,430.101166 578.002869,432.231140 578.021667,434.157593 
	C578.125854,444.820038 578.314819,455.485687 578.143921,466.144928 
	C578.074097,470.502380 579.507324,472.097717 583.942993,471.801392 
	C588.747070,471.480438 592.703674,469.610443 595.916504,466.330475 
	C606.056702,455.978241 616.317688,445.722900 626.015503,434.964539 
	C636.695496,423.116516 636.060059,411.733917 624.875061,400.587219 
	C614.844116,390.590637 604.793091,380.614136 594.759399,370.620178 
	C590.688477,366.565308 586.217590,363.307037 580.438416,361.952911 
	C574.425598,360.544067 569.408875,362.293640 565.555115,366.663574 
	C561.615051,371.131409 560.030457,376.456879 562.295471,382.444153 
	C563.561340,385.790436 565.490967,388.630188 568.009888,391.132751 
	C572.619507,395.712341 577.210022,400.311462 581.770203,404.940155 
	C582.995850,406.184113 584.574219,407.259735 584.804443,409.823883 
	C543.563354,409.823883 502.616058,409.823883 461.601776,409.823883 
	C461.337372,406.779877 463.384949,405.521332 464.740417,404.009216 
	C489.090515,376.844147 513.497009,349.729553 537.877563,322.591766 
	C540.785706,319.354767 543.945801,316.415161 547.822754,313.731995 
z"/>
<path fill="#000000" opacity="1.000000" stroke="none" 
	d="
M560.890991,428.855835 
	C535.510498,457.128113 510.718994,485.461487 485.113983,513.039612 
	C469.089020,530.299438 448.682861,533.744141 426.349243,527.867798 
	C410.723328,523.756348 399.101349,513.606140 388.061432,502.577972 
	C377.453949,491.981781 366.901917,481.330139 356.296906,470.731506 
	C330.253540,444.703735 327.715912,405.831818 350.968140,377.425537 
	C366.265076,358.737854 383.258850,341.506561 399.841827,323.949982 
	C406.429138,316.975861 415.142120,314.089630 424.633453,313.736816 
	C429.791687,313.545105 434.968323,313.487885 440.123932,313.691803 
	C444.933990,313.881989 446.712585,311.605133 446.673004,307.085632 
	C446.603027,299.089661 446.670685,291.092407 446.702240,283.095764 
	C446.705383,282.297424 446.632507,281.423340 447.450897,280.852203 
	C448.666412,280.516266 449.287689,281.462952 449.934753,282.132751 
	C467.526733,300.342712 485.211365,318.463074 502.352600,337.105591 
	C505.130188,340.126404 505.516510,342.096924 502.555267,345.388855 
	C485.294250,364.577423 468.272125,383.980835 451.167267,403.309906 
	C450.302612,404.287018 449.548370,405.435913 448.040680,405.540527 
	C446.184845,404.123932 446.886353,402.145386 446.871185,400.426086 
	C446.777069,389.764709 446.842712,379.101593 446.709106,368.440918 
	C446.639069,362.850067 444.992432,361.712494 439.546906,362.813080 
	C435.675537,363.595490 432.308167,365.250854 429.537048,368.075134 
	C419.738770,378.061340 409.560242,387.680664 400.385895,398.269165 
	C388.969269,411.445496 389.308807,422.375671 401.504761,434.562317 
	C410.814758,443.865204 420.111816,453.181061 429.432404,462.473297 
	C432.625763,465.657013 435.956635,468.682373 440.102295,470.620819 
	C447.764954,474.203796 455.946686,472.340088 460.646149,465.960480 
	C465.476166,459.403625 465.135834,451.161530 459.290771,444.924774 
	C454.055267,439.338379 448.392883,434.153290 442.962067,428.747711 
	C441.819977,427.610962 440.176910,426.832611 439.806396,424.337250 
	C481.000000,424.337250 522.074951,424.337250 563.161621,424.337250 
	C563.879089,426.509094 562.060059,427.335968 560.890991,428.855835 
z"/>
<path fill="#000000" opacity="1.000000" stroke="none" 
	d="
M365.622101,663.156128 
	C362.991577,663.536743 364.222839,665.516052 364.209961,666.743896 
	C364.077148,679.393921 364.122681,692.045715 364.082977,704.696899 
	C364.062897,711.094727 363.883179,711.233459 357.194916,711.215210 
	C350.674408,711.197449 350.659546,711.197449 350.657318,704.516968 
	C350.650574,684.208191 350.609711,663.899231 350.723053,643.591064 
	C350.735565,641.344482 349.268036,637.747437 352.568024,637.153259 
	C356.412994,636.460876 360.854004,635.252014 364.063599,639.410522 
	C372.096039,649.817688 380.196228,660.172852 388.303345,670.522156 
	C392.058838,675.316345 395.893829,680.048157 400.834717,684.477234 
	C400.834717,678.575439 400.833679,672.673584 400.834961,666.771790 
	C400.836731,658.614990 400.991272,650.454285 400.778870,642.303040 
	C400.673798,638.270020 401.961060,636.659790 406.185638,636.721375 
	C414.354370,636.840576 414.344391,636.638245 414.343536,644.852295 
	C414.341461,664.661621 414.405029,684.471313 414.289612,704.279907 
	C414.275818,706.646484 415.822845,710.394348 412.026855,710.960693 
	C408.155823,711.538208 403.852722,712.684204 400.641113,708.382690 
	C392.476776,697.447815 384.079071,686.686584 375.737671,675.884583 
	C372.482758,671.669495 369.128448,667.531250 365.622101,663.156128 
z"/>
<path fill="#000000" opacity="1.000000" stroke="none" 
	d="
M629.231445,697.302429 
	C637.930481,677.801147 646.483093,658.651245 654.978516,639.475952 
	C656.019531,637.126282 657.350769,635.667053 660.180725,635.724304 
	C662.766357,635.776550 664.631409,636.453125 665.744507,638.987183 
	C675.851440,661.996399 686.013184,684.981628 696.125244,707.988647 
	C696.439148,708.702881 696.388062,709.577637 696.627686,711.187195 
	C691.420532,711.187195 686.516479,711.312866 681.623596,711.134155 
	C679.182434,711.044922 678.699585,708.650757 677.891357,706.895813 
	C671.345337,692.680603 674.514587,695.760071 659.656372,695.337708 
	C657.706665,695.282288 655.654846,695.836670 653.846130,694.643250 
	C653.456055,685.286682 660.011475,683.943970 667.550232,683.772400 
	C665.887268,677.898438 663.163025,673.365173 660.866333,668.109314 
	C657.895447,671.290344 657.671021,675.728638 654.492554,678.556213 
	C651.465820,676.198669 651.372131,672.774841 650.276184,668.701721 
	C644.141785,680.523621 639.075867,691.920593 634.388184,703.594360 
	C637.617981,705.678162 639.128479,704.442566 640.347046,701.633728 
	C641.465637,699.055176 642.170349,695.877808 645.947937,695.463013 
	C646.080200,707.374084 636.991455,713.615051 623.899414,710.417542 
	C624.838074,705.837463 627.546448,701.955994 629.231445,697.302429 
z"/>
<path fill="#000000" opacity="1.000000" stroke="none" 
	d="
M217.306717,651.187988 
	C203.466614,659.556702 199.884995,676.366760 208.953415,688.961914 
	C217.327805,700.593140 234.652405,702.513550 246.113647,692.685425 
	C249.995132,689.357056 249.644577,690.088257 256.552734,695.893616 
	C260.103607,698.877563 256.350372,700.587891 254.738739,702.171570 
	C242.550034,714.147644 220.994919,715.653687 206.718521,705.674072 
	C191.470825,695.015564 185.968521,675.633240 192.887817,658.763184 
	C204.388489,630.723206 240.285721,630.643188 254.913834,644.978821 
	C256.626099,646.656860 259.623108,648.063110 256.462524,651.362732 
	C251.017319,657.047302 249.350906,657.717957 245.689087,654.680298 
	C237.118942,647.570801 227.709000,646.751770 217.306717,651.187988 
z"/>
<path fill="#000000" opacity="1.000000" stroke="none" 
	d="
M430.684509,656.901855 
	C442.281738,633.307312 473.411652,629.976624 490.364777,643.882568 
	C492.187653,645.377747 495.437042,646.993103 494.359558,649.569702 
	C492.970917,652.890686 489.725067,655.229370 486.373047,656.766479 
	C484.865662,657.457886 483.818024,655.551147 482.689056,654.645508 
	C472.322021,646.328735 458.104004,646.458618 448.806366,654.980347 
	C439.862823,663.177551 438.240540,677.811035 445.100739,688.406250 
	C452.738159,700.201843 470.253143,702.667786 482.293152,693.715576 
	C483.768707,692.618469 484.899353,690.064636 487.274170,691.353516 
	C490.044342,692.857056 492.683685,694.828918 494.286591,697.561096 
	C495.318726,699.320374 493.289368,700.550415 492.148132,701.633789 
	C481.246094,711.983154 468.397797,714.481750 454.224915,710.441772 
	C440.014282,706.390991 431.301727,696.791931 427.744385,682.569214 
	C425.562836,673.847107 426.893097,665.392822 430.684509,656.901855 
z"/>
<path fill="#000000" opacity="1.000000" stroke="none" 
	d="
M557.001221,711.310791 
	C552.008484,711.296021 547.514160,711.214478 543.022644,711.290527 
	C540.042969,711.340881 538.834167,709.965820 538.838196,707.065369 
	C538.869080,685.098816 538.881104,663.132141 538.830261,641.165710 
	C538.822876,637.993164 540.117126,636.551208 543.307251,636.740173 
	C544.965393,636.838379 546.639771,636.834900 548.297424,636.730042 
	C551.430908,636.531616 552.669800,637.640991 552.625610,641.047607 
	C552.400757,658.351013 552.591003,675.660828 552.265625,692.961365 
	C552.175537,697.752136 553.891907,698.939270 558.326721,698.778198 
	C566.304016,698.488342 574.306580,698.899475 582.284851,698.622864 
	C587.550476,698.440186 587.150330,701.740479 587.174866,705.177185 
	C587.198608,708.514709 587.379822,711.508179 582.460938,711.362061 
	C574.147705,711.114990 565.821533,711.304871 557.001221,711.310791 
z"/>
<path fill="#000000" opacity="1.000000" stroke="none" 
	d="
M338.132599,675.643982 
	C339.589050,680.017273 338.028503,683.743286 336.576477,687.392273 
	C330.004303,703.908142 315.208344,713.218018 297.296173,712.252991 
	C281.959106,711.426758 267.620605,699.507263 263.442444,684.129150 
	C262.700165,681.397217 262.290405,678.649353 262.642578,675.642395 
	C266.398529,674.219543 270.223480,674.776611 273.959747,675.089355 
	C276.828186,675.329529 276.650879,678.139221 277.174988,680.100342 
	C279.915802,690.356201 286.564087,696.201843 296.941803,697.999756 
	C308.100098,699.932922 319.659058,693.203430 323.520264,682.487915 
	C326.358734,674.610657 326.359192,674.598572 334.856628,674.926453 
	C335.838287,674.964233 336.811188,675.228149 338.132599,675.643982 
z"/>
<path fill="#000000" opacity="1.000000" stroke="none" 
	d="
M323.523560,665.588989 
	C318.838104,655.047302 310.779266,649.438599 299.838806,649.809326 
	C288.628204,650.189148 280.893555,656.468567 277.523956,667.406555 
	C276.738586,669.955933 275.320984,670.807190 272.855194,670.911560 
	C261.890656,671.374878 260.866119,669.958130 264.949219,659.715088 
	C271.297974,643.788269 286.880646,634.333069 304.356934,635.803223 
	C322.006622,637.287964 334.976013,648.812195 338.584259,665.743774 
	C339.503632,670.057983 338.028107,671.315063 334.168182,671.044678 
	C330.000061,670.752625 324.652161,672.812073 323.523560,665.588989 
z"/>
<path fill="#000000" opacity="1.000000" stroke="none" 
	d="
M709.657349,689.999817 
	C709.647705,673.186157 709.746094,656.871277 709.554382,640.559753 
	C709.506165,636.450439 710.843994,634.875244 714.978882,635.036072 
	C724.287964,635.398315 733.619812,635.255554 742.920166,635.742493 
	C755.141052,636.382263 764.273132,645.963745 765.205627,658.613464 
	C766.151367,671.443604 758.364075,682.547424 746.571960,685.214539 
	C738.503357,687.039429 730.319885,686.145630 722.191772,686.116272 
	C718.215332,686.101868 716.440430,687.015625 716.779175,691.395386 
	C717.175964,696.525757 716.903809,701.708984 716.894775,706.869263 
	C716.890259,709.444519 716.354187,711.431702 713.022034,711.350342 
	C709.854065,711.273010 709.678406,709.291870 709.678040,706.979858 
	C709.677185,701.486511 709.665344,695.993164 709.657349,689.999817 
M717.425659,642.716492 
	C717.117798,643.288879 716.538208,643.863281 716.542297,644.433472 
	C716.618591,655.079651 716.770874,665.725159 716.890869,676.371033 
	C716.921692,679.106201 718.893127,679.043457 720.745483,679.040833 
	C727.569275,679.031067 734.407349,679.237000 741.213623,678.870972 
	C751.691589,678.307617 757.770569,671.490417 757.790649,660.841858 
	C757.811401,649.846924 751.717712,642.794189 741.161133,642.316528 
	C733.526489,641.971130 725.860413,642.320618 717.425659,642.716492 
z"/>
<path fill="#000000" opacity="1.000000" stroke="none" 
	d="
M778.670776,674.999878 
	C778.671631,663.187439 778.829529,651.871765 778.592957,640.564331 
	C778.504333,636.330322 780.201599,634.953857 784.129089,635.071594 
	C793.603210,635.355774 803.099854,635.198914 812.553589,635.775146 
	C825.988892,636.594055 834.581909,647.096375 834.377686,661.790649 
	C834.183228,675.784363 824.721130,685.624512 810.596863,686.201721 
	C803.953552,686.473145 797.285522,686.408630 790.637878,686.201538 
	C787.031921,686.089233 785.549805,687.079529 785.812927,690.985474 
	C786.169922,696.284729 785.900391,701.626160 785.899475,706.949524 
	C785.899048,709.573425 785.291748,711.461914 781.982178,711.344604 
	C778.805908,711.232056 778.686890,709.238525 778.686951,706.941833 
	C778.687256,696.461182 778.677246,685.980591 778.670776,674.999878 
M827.184814,664.588928 
	C829.171570,651.258972 821.876221,642.422119 808.572937,642.186646 
	C802.254944,642.074768 795.932617,642.231323 789.613342,642.161560 
	C786.962341,642.132324 785.763489,642.942627 785.772034,645.898621 
	C785.799377,655.369324 785.696411,664.847046 785.318542,674.309143 
	C785.147339,678.598999 786.882019,679.779541 790.875244,679.641235 
	C796.511047,679.446045 802.152649,679.303894 807.807556,679.350403 
	C818.492676,679.438171 824.302673,674.846069 827.184814,664.588928 
z"/>
<path fill="#000000" opacity="1.000000" stroke="none" 
	d="
M520.309631,643.116821 
	C520.312866,664.053894 520.325989,684.506348 520.310791,704.958801 
	C520.306152,711.241150 520.264648,711.246521 513.288940,711.229980 
	C506.979431,711.215027 506.825592,711.083801 506.821472,704.838440 
	C506.807800,684.219727 506.876373,663.600586 506.751892,642.982544 
	C506.726959,638.851746 507.356293,636.442017 512.422791,636.662109 
	C520.074707,636.994263 520.088074,636.686157 520.309631,643.116821 
z"/>
<path fill="#000000" opacity="1.000000" stroke="none" 
	d="
M610.339966,710.353394 
	C609.706726,710.809265 609.406494,711.005249 609.088074,711.041565 
	C597.785828,712.331848 597.657288,712.215759 597.653076,700.928589 
	C597.645813,681.480042 597.804932,662.028992 597.518982,642.584534 
	C597.442566,637.391907 599.592285,636.425171 604.038696,636.680603 
	C607.938965,636.904541 611.497070,636.103943 611.400574,642.282104 
	C611.071106,663.388000 611.263123,684.501831 611.213257,705.612610 
	C611.209778,707.081848 610.855530,708.550293 610.339966,710.353394 
z"/>
</svg>